<svg width="40" height="40" viewBox="0 0 40 40" fill="none" xmlns="http://www.w3.org/2000/svg">
<rect opacity="0.2" width="39.8159" height="40" rx="19.908" fill="#7B99FF"/>
<path d="M19.9075 12C18.3326 12 16.793 12.4692 15.4834 13.3482C14.1739 14.2273 13.1532 15.4767 12.5505 16.9385C11.9478 18.4003 11.7901 20.0089 12.0973 21.5607C12.4046 23.1126 13.163 24.538 14.2767 25.6569C15.3904 26.7757 16.8093 27.5376 18.354 27.8463C19.8987 28.155 21.4998 27.9965 22.9549 27.391C24.41 26.7855 25.6537 25.7602 26.5287 24.4446C27.4037 23.129 27.8707 21.5822 27.8707 20C27.8667 17.8795 27.0264 15.847 25.5339 14.3476C24.0414 12.8482 22.0182 12.0041 19.9075 12ZM16.2322 20.9231C16.0505 20.9231 15.8728 20.8689 15.7217 20.7675C15.5706 20.6661 15.4529 20.5219 15.3833 20.3532C15.3138 20.1846 15.2956 19.999 15.331 19.8199C15.3665 19.6409 15.454 19.4764 15.5825 19.3473C15.711 19.2182 15.8747 19.1303 16.053 19.0947C16.2312 19.059 16.4159 19.0773 16.5838 19.1472C16.7517 19.2171 16.8952 19.3354 16.9962 19.4872C17.0971 19.639 17.151 19.8174 17.151 20C17.151 20.2448 17.0542 20.4796 16.8819 20.6527C16.7096 20.8258 16.4759 20.9231 16.2322 20.9231ZM19.9075 20.9231C19.7258 20.9231 19.5481 20.8689 19.397 20.7675C19.2459 20.6661 19.1282 20.5219 19.0586 20.3532C18.9891 20.1846 18.9709 19.999 19.0063 19.8199C19.0418 19.6409 19.1293 19.4764 19.2578 19.3473C19.3863 19.2182 19.55 19.1303 19.7283 19.0947C19.9065 19.059 20.0912 19.0773 20.2591 19.1472C20.427 19.2171 20.5705 19.3354 20.6715 19.4872C20.7725 19.639 20.8264 19.8174 20.8264 20C20.8264 20.2448 20.7295 20.4796 20.5572 20.6527C20.3849 20.8258 20.1512 20.9231 19.9075 20.9231ZM23.5828 20.9231C23.4011 20.9231 23.2235 20.8689 23.0724 20.7675C22.9213 20.6661 22.8035 20.5219 22.734 20.3532C22.6644 20.1846 22.6462 19.999 22.6817 19.8199C22.7171 19.6409 22.8046 19.4764 22.9331 19.3473C23.0616 19.2182 23.2253 19.1303 23.4036 19.0947C23.5818 19.059 23.7666 19.0773 23.9345 19.1472C24.1024 19.2171 24.2459 19.3354 24.3468 19.4872C24.4478 19.639 24.5017 19.8174 24.5017 20C24.5017 20.2448 24.4049 20.4796 24.2325 20.6527C24.0602 20.8258 23.8265 20.9231 23.5828 20.9231Z" fill="#7B99FF"/>
</svg>
