<svg width="40" height="40" viewBox="0 0 40 40" fill="none" xmlns="http://www.w3.org/2000/svg">
<rect opacity="0.2" width="39.8159" height="40" rx="19.908" fill="#7B99FF"/>
<path d="M23.4467 12.8887C22.7599 12.8887 22.0825 13.0493 21.4682 13.3579C20.854 13.6665 20.3196 14.1145 19.9075 14.6664C19.3504 13.9202 18.5737 13.369 17.6874 13.0908C16.8011 12.8127 15.8502 12.8218 14.9693 13.1167C14.0885 13.4117 13.3223 13.9777 12.7794 14.7344C12.2365 15.4911 11.9443 16.4003 11.9443 17.3331C11.9443 22.659 19.3103 26.859 19.62 27.0368C19.7077 27.0864 19.8069 27.1119 19.9075 27.1109C20.0083 27.1126 20.1076 27.087 20.1951 27.0368C21.5515 26.2402 22.8238 25.307 23.9923 24.2516C26.5656 21.9257 27.8707 19.5998 27.8707 17.3331C27.8707 16.1544 27.4046 15.0239 26.5749 14.1904C25.7453 13.3569 24.62 12.8887 23.4467 12.8887Z" fill="#7B99FF"/>
</svg>
