<svg width="40" height="40" viewBox="0 0 40 40" fill="none" xmlns="http://www.w3.org/2000/svg">
<rect opacity="0.2" width="39.8159" height="40" rx="19.908" fill="#7B99FF"/>
<path d="M17.0713 19.4798C17.5811 19.4798 18.0484 19.2431 18.4264 18.8793C18.0299 18.1683 17.8035 17.3639 17.8035 16.5921C17.8035 15.9375 17.9615 15.3201 18.2394 14.7749C17.8947 14.5635 17.4918 14.4396 17.0596 14.4396C15.7964 14.4396 14.7725 15.4783 14.7725 16.7595C14.7725 18.0409 15.8081 19.4798 17.0713 19.4798Z" fill="#7B99FF"/>
<path d="M18.6095 20.5799C18.3863 20.5318 18.1552 20.5051 17.9177 20.5051H16.2168C14.4069 20.5051 12.9395 21.9771 12.9395 23.793L12.9471 24.1818C12.9471 24.6892 13.3572 25.1005 13.8629 25.1005H15.54C15.6223 23.0802 16.8605 21.3579 18.6095 20.5799Z" fill="#7B99FF"/>
<path d="M21.7519 19.9647C23.3181 19.9647 24.5734 18.1804 24.5734 16.5917C24.5734 15.003 23.3036 13.715 21.7374 13.715C20.1712 13.715 18.9014 15.003 18.9014 16.5917C18.9016 18.1804 20.1856 19.9647 21.7519 19.9647Z" fill="#7B99FF"/>
<path d="M26.8656 25.3137C26.8656 23.062 25.0461 21.2367 22.8018 21.2367H20.6927C18.4484 21.2367 16.6289 23.062 16.6289 25.3137L16.6386 25.7959C16.6386 26.4249 17.1469 26.935 17.7741 26.935H25.7399C26.367 26.935 26.8754 26.4249 26.8754 25.7959L26.8656 25.3137Z" fill="#7B99FF"/>
</svg>
